<?xml version="1.0" encoding="UTF-8"?>
<svg width="512pt" height="512pt" version="1.1" viewBox="0 0 512 512" xmlns="http://www.w3.org/2000/svg">
 <path d="m39.383 256c0-119.63 96.984-216.62 216.62-216.62s216.61 96.984 216.61 216.62-96.98 216.61-216.61 216.61-216.62-96.98-216.62-216.61zm216.62-256c-141.39 0-256 114.61-256 256 0 141.38 114.61 256 256 256 141.38 0 256-114.62 256-256 0-141.39-114.62-256-256-256zm-19.152 306.17c0 11.805 6.3086 17.707 18.926 17.707 12.617 0 18.926-5.9023 18.926-17.707 0-7.8672 1.1289-14.047 3.3789-18.547 2.4023-4.4961 5.8594-8.2891 10.367-11.379 4.6562-3.0938 10.289-6.4648 16.898-10.121 6.457-3.3672 13.516-7.6562 21.18-12.855 7.6602-5.1992 14.195-12.297 19.602-21.285 5.5586-8.9961 8.3359-20.938 8.3359-35.836 0-26.414-6.8359-46.016-20.504-58.805-13.668-12.785-34.621-19.18-62.863-19.18h-30.191c-27.938 0-48.816 6.4648-62.637 19.391-13.82 12.93-20.727 32.461-20.727 58.594 0 11.805 6.3086 17.707 18.926 17.707 12.617 0 18.926-5.9023 18.926-17.707 0-16.297 3.1523-27.469 9.4609-33.512 6.3086-6.043 18.328-9.0625 36.051-9.0625h30.191c17.875 0 29.891 2.9492 36.051 8.8516 6.3086 5.7617 9.4648 17.004 9.4648 33.723 0 7.8711-1.2031 14.055-3.6055 18.551-2.2539 4.4961-5.707 8.2891-10.363 11.379-4.5078 3.0938-10.066 6.4648-16.676 10.121-6.457 3.3711-13.52 7.6562-21.176 12.855-7.6641 5.1992-14.273 12.297-19.832 21.289-5.4062 8.9922-8.1094 20.934-8.1094 35.828zm-4.5078 70.82c0 11.246 6.0078 16.863 18.027 16.863h10.816c11.414 0 17.121-5.6172 17.121-16.863v-10.535c0-10.961-5.707-16.441-17.121-16.441h-10.816c-12.02 0-18.027 5.4805-18.027 16.441z" fill-rule="evenodd"/>
</svg>
